<?xml version="1.0" encoding="utf-8"?>
<!-- Generator: Adobe Illustrator 21.1.0, SVG Export Plug-In . SVG Version: 6.00 Build 0)  -->
<svg version="1.1" id="Слой_1" xmlns="http://www.w3.org/2000/svg" xmlns:xlink="http://www.w3.org/1999/xlink" x="0px" y="0px"
	 viewBox="0 0 85 10.7" style="enable-background:new 0 0 85 10.7;" xml:space="preserve">
<style type="text/css">
	.st0{fill:#ffffff;}
</style>
<g>
	<g>
		<path class="st0" d="M83.7,2.7c-0.2,0-0.5-0.1-0.7-0.2c-0.2-0.1-0.4-0.3-0.5-0.5s-0.2-0.4-0.2-0.7s0.1-0.5,0.2-0.7
			s0.3-0.4,0.5-0.5c0.2,0,0.5-0.1,0.7-0.1s0.5,0.1,0.7,0.2s0.4,0.3,0.5,0.5C85,0.9,85,1.1,85,1.3c0,0.3,0,0.5-0.1,0.7
			s-0.3,0.4-0.5,0.5C84.2,2.6,84,2.7,83.7,2.7 M82.7,1.3c0,0.2,0.1,0.4,0.1,0.6c0.1,0.2,0.2,0.3,0.4,0.4c0.2,0.1,0.3,0.1,0.5,0.1
			s0.4,0,0.5-0.1c0.2-0.1,0.3-0.2,0.4-0.4c0.1-0.2,0.1-0.4,0.1-0.6s0-0.4-0.1-0.6s-0.2-0.3-0.4-0.4c-0.2-0.1-0.3-0.1-0.5-0.1
			s-0.4,0-0.5,0.1c-0.2,0.1-0.3,0.2-0.4,0.4S82.7,1.1,82.7,1.3 M83.4,1.5v0.7h-0.2V0.6h0.6c0.2,0,0.3,0,0.4,0.1s0.1,0.2,0.1,0.3
			s0,0.2-0.1,0.3c-0.1,0.1-0.2,0.1-0.3,0.1l0.4,0.7H84l-0.4-0.7h-0.2V1.5z M83.4,0.8v0.5h0.3c0.1,0,0.2,0,0.3,0
			c0.1,0,0.1-0.1,0.1-0.2s0-0.2-0.1-0.2s-0.1,0-0.2,0L83.4,0.8L83.4,0.8z"/>
		<path class="st0" d="M60.6,0.6c-0.2,0.2-0.4,0.5-0.5,0.9l-2.5,7.7c-0.1,0.4-0.2,0.7-0.1,0.9c0.1,0.2,0.4,0.2,1,0.2h0.4l-0.1,0.3
			H52l0.1-0.3c0.6,0,1,0,1.2-0.2c0.2-0.1,0.4-0.5,0.6-0.9l1.2-3.6h-3.8l-1.2,3.6c-0.2,0.5-0.2,0.8-0.1,1c0.1,0.1,0.5,0.2,1.2,0.1
			l-0.1,0.3h-5.9h-0.7l0.1-0.3c0.2,0,0.4,0,0.6,0c0.3,0,0.5-0.1,0.7-0.1c0.2-0.1,0.4-0.4,0.5-1L49,1.5c0.1-0.4,0.2-0.7,0.1-0.9
			c-0.1-0.1-0.4-0.2-0.9-0.2h-0.4L48,0h6.6l-0.1,0.3h-0.3c-0.5,0-0.9,0.1-1,0.2C53,0.6,52.9,1,52.7,1.4l-1.1,3.4h3.8l1.1-3.4
			c0.1-0.5,0.2-0.8,0-0.9c-0.1-0.1-0.5-0.2-1.1-0.2L55.5,0h5.1h1.6L62,0.4h-0.4C61.1,0.4,60.8,0.5,60.6,0.6"/>
		<path class="st0" d="M63.8,8.2h-1.4l-0.9,1.2c-0.1,0.2-0.2,0.4-0.3,0.4c-0.1,0.2,0,0.4,0.1,0.4c0.1,0.1,0.4,0.1,0.8,0.1L62,10.5
			h-1.2h-1.5l0.1-0.2c0.3,0,0.6-0.1,0.8-0.3c0.2-0.1,0.4-0.3,0.7-0.7C61,9.2,61,9.1,61.1,9.1l2.8-3.8L66,2.5h0.8L68,9.6
			c0,0.3,0.1,0.4,0.2,0.5c0,0.1,0.2,0.1,0.4,0.1l-0.1,0.2H64l0.1-0.2c0.3,0,0.6,0,0.7,0c0.3-0.1,0.5-0.2,0.6-0.4
			c0.1-0.1,0.1-0.3,0-0.5L65,8.2H63.8z M63.8,6.2l-1.1,1.5h1.1h1.1l-0.4-2.4L63.8,6.2z"/>
		<path class="st0" d="M8.4,1.1l-2.6,8C5.6,9.4,5.6,9.6,5.6,9.7c0.1,0.1,0.3,0.2,0.6,0.2c0.8,0,1.5-0.2,2.1-0.7
			C8.4,9.1,8.6,9,8.7,8.9c0.7-0.7,1.3-1.8,1.8-3.3c1.1-3.4,0.6-5.1-1.4-5.1H8.5L8.4,1.1z M0,10.7l0.1-0.3c0.7,0,1.2-0.1,1.5-0.3
			c0.2-0.2,0.4-0.5,0.6-1l2.5-7.6c0.2-0.5,0.2-0.9,0-1C4.5,0.4,4.1,0.3,3.4,0.4L3.5,0h4.9h2c1.6,0,2.8,0.5,3.7,1.4
			c0.9,1,1.1,2.3,0.6,4c-0.5,1.5-1.4,2.7-2.8,3.7c-1,0.8-2.2,1.3-3.5,1.5c-0.5,0.1-1.1,0.1-1.7,0.1C6.7,10.7,0,10.7,0,10.7z"/>
		<path class="st0" d="M20.1,2.8c0.4-0.1,0.8-0.1,1.3-0.1c1.6,0,2.6,0.4,3.2,1.2c0.6,0.7,0.7,1.7,0.3,2.8c-0.3,1-0.9,1.9-1.9,2.6
			c-0.8,0.7-1.8,1.2-3,1.3c-0.4,0.1-0.9,0.1-1.3,0.1c-1.7,0-2.8-0.5-3.4-1.4c-0.4-0.7-0.5-1.6-0.1-2.6c0.3-1.1,1-2,2-2.7
			C18.1,3.3,19,2.9,20.1,2.8 M20.1,9.8c0.7-0.5,1.3-1.6,1.8-3.1c0.7-2.4,0.5-3.5-0.7-3.5c-0.4,0-0.7,0.1-1.1,0.4
			c-0.2,0.1-0.4,0.3-0.5,0.5c-0.5,0.6-0.9,1.5-1.3,2.6c-0.3,1-0.4,1.8-0.4,2.4c0.1,0.7,0.4,1.2,1.1,1.2C19.3,10.2,19.7,10,20.1,9.8"
			/>
		<path class="st0" d="M30.5,2.8c0.4-0.1,0.8-0.1,1.3-0.1c1.6,0,2.6,0.4,3.2,1.2c0.6,0.7,0.7,1.7,0.3,2.8c-0.3,1-0.9,1.9-1.8,2.6
			c-0.8,0.7-1.8,1.2-3,1.3c-0.4,0.1-0.9,0.1-1.3,0.1c-1.7,0-2.8-0.5-3.4-1.4c-0.4-0.7-0.5-1.6-0.1-2.6c0.3-1.1,1-2,2-2.7
			C28.6,3.3,29.5,2.9,30.5,2.8 M30.5,9.8c0.7-0.5,1.3-1.6,1.8-3.1c0.7-2.4,0.5-3.5-0.7-3.5c-0.4,0-0.7,0.1-1.1,0.4
			c-0.2,0.1-0.4,0.3-0.5,0.5c-0.5,0.6-0.9,1.5-1.3,2.6c-0.3,1-0.4,1.8-0.4,2.4c0.1,0.7,0.4,1.2,1.1,1.2C29.8,10.2,30.2,10,30.5,9.8"
			/>
		<path class="st0" d="M40.8,3.2h-0.3l-1.1,3.4H40c0.3,0,0.6-0.1,0.9-0.2c0.6-0.2,1-0.8,1.3-1.6c0.2-0.5,0.2-0.9,0.1-1.2
			c-0.2-0.3-0.5-0.5-1-0.5L40.8,3.2L40.8,3.2z M44.7,3.4c0.2,0.3,0.2,0.8,0.1,1.4c0,0.1-0.1,0.1-0.1,0.2c-0.4,0.9-1.1,1.4-2.3,1.8
			l0.9,3c0.1,0.4,0.4,0.6,0.8,0.6L44,10.7h-3.3L39.6,7h-0.3l-0.8,2.4c-0.1,0.3-0.1,0.6-0.1,0.7c0.1,0.2,0.5,0.3,1,0.2l-0.1,0.3h-4.6
			h-0.4l0.1-0.3h0.3c0.3,0,0.5-0.1,0.7-0.2c0.2-0.1,0.3-0.3,0.4-0.6l1.9-5.9c0.1-0.3,0.1-0.6,0-0.7c-0.1-0.1-0.5-0.2-0.9-0.2
			l0.1-0.2h4h1.4C43.5,2.7,44.3,2.9,44.7,3.4"/>
		<path class="st0" d="M78.7,2.7L78.6,3c0.8,0,1.2,0.2,1,0.8l-1.3,4l0,0l-3-5h-3.6l-0.1,0.3c0.3,0,0.4,0,0.6,0.1
			c0.1,0,0.2,0.1,0.3,0.3l0.2,0.3l-1.9,5.9c-0.2,0.6-0.7,0.9-1.5,0.9l-0.1,0.2h3.1l0.1-0.2c-0.5,0-0.8-0.1-0.9-0.2
			c-0.1-0.1-0.1-0.4,0-0.8L73,4.3l0,0l3.9,6.4H78l2.2-6.9c0.1-0.3,0.2-0.5,0.5-0.6C80.9,3.1,81.2,3,81.6,3l0.1-0.3
			C81.7,2.7,78.7,2.7,78.7,2.7z"/>
	</g>
</g>
</svg>
